<svg id="mouse" xmlns="http://www.w3.org/2000/svg" width="16.489" height="28.029" viewBox="0 0 16.489 28.029">
  <path id="Path_5" data-name="Path 5" d="M8.245,0A8.254,8.254,0,0,0,0,8.245v11.54a8.245,8.245,0,0,0,16.489,0V8.245A8.254,8.254,0,0,0,8.245,0Zm6.563,19.785a6.563,6.563,0,0,1-13.126,0V8.245a6.563,6.563,0,1,1,13.126,0Zm0,0" fill="#ffcb00"/>
  <path id="Path_6" data-name="Path 6" d="M136.086,101.852a.841.841,0,0,0-.841.841v3.87a.841.841,0,1,0,1.682,0v-3.87A.841.841,0,0,0,136.086,101.852Zm0,0" transform="translate(-127.842 -96.276)" fill="#ffcb00"/>
</svg>
